<?xml version="1.0" encoding="utf-8"?>
<!-- Generator: Adobe Illustrator 25.4.1, SVG Export Plug-In . SVG Version: 6.00 Build 0)  -->
<svg version="1.1" id="Layer_1" xmlns="http://www.w3.org/2000/svg" xmlns:xlink="http://www.w3.org/1999/xlink" x="0px" y="0px"
	 viewBox="0 0 167 36" style="enable-background:new 0 0 167 36;" xml:space="preserve">
<style type="text/css">
	.st0{font-family:'Arial-Black';}
	.st1{font-size:28.1772px;}
</style>
<g>
	<path d="M6.28,0h0.31c8.43,4.4,16.22,9.97,24.81,14.06c-4.74,3.97-8.42,8.98-12.76,13.36c-0.42,2.09,0.72,5.59-2.2,6.05
		c-1.87-1.15-2.21-3.49-3.13-5.3c0.18,1.51,0.33,3.02,0.48,4.54c-0.83,1.1-1.65,2.21-2.52,3.29h-0.25c-0.99-2.01-3.35-4.1-1.98-6.48
		c1.52-2.8,1.03-5.88,0.04-8.78c1.27,1.21,2.53,2.41,3.81,3.6c-0.67,1.87-1.42,3.69-2.19,5.51c3.85-5.03,8.18-9.68,12.52-14.28
		c-5.25-3.11-10.51-6.21-15.78-9.3C7.08,4.18,6.73,2.08,6.28,0z"/>
	<g>
		<path d="M38.76,6.02C42.49,6.17,46.39,5.44,50,6.59c4.08,2.09,4.61,7.33,4.65,11.41c0.01,3.88-0.91,8.8-4.96,10.44
			c-3.52,1.08-7.3,0.41-10.93,0.55C38.77,21.33,38.77,13.67,38.76,6.02z M44.12,10.76c-0.03,4.48-0.03,8.96-0.01,13.44
			c1.55-0.38,4.02,0.06,4.62-1.9c0.82-2.88,0.7-6.01,0.18-8.93C48.49,11.1,45.89,11.11,44.12,10.76z"/>
	</g>
	<ellipse cx="90" cy="8" rx="3.35" ry="2.83"/>
	<ellipse cx="124" cy="8" rx="3.35" ry="2.83"/>
	<path d="M111.87,9.21c1.62-1.11,3.26-2.21,4.9-3.31c-0.01,2.01-0.01,4.02-0.02,6.04c0.66,0.03,1.97,0.09,2.63,0.12
		c0,1.63,0,3.25,0,4.88c-0.66,0.03-1.98,0.09-2.64,0.12c0.02,2.58,0.03,5.15,0.04,7.73c0.67,0.1,2.01,0.3,2.67,0.41
		c-0.05,1.14-0.16,2.29-0.32,3.42c-2.17,0.79-5.55,0.89-6.65-1.6c-0.96-3.1-0.47-6.42-0.6-9.61c-2.69-0.14-2.69-5.7,0.01-5.82
		C111.88,10.99,111.87,9.8,111.87,9.21z"/>
	<path d="M71,12c1.7,0.01,3.4,0.02,5.1,0.03c0.74,3.59,1.5,7.17,2.27,10.75c0.84-3.59,1.64-7.19,2.55-10.76
		c1.6-0.01,3.19-0.02,4.79-0.03c-1.76,5.68-3.54,11.34-5.3,17.01c-1.41,0-2.83,0-4.23,0C74.44,23.33,72.73,17.66,71,12z"/>
	<ellipse cx="90" cy="20.5" rx="3.35" ry="12.02"/>
	<g>
		<path d="M94.94,16.76c1.22-5.54,9.42-6.55,12.76-2.6c1.86,4.73,0.36,10,1.29,14.92c-1.92-0.26-4.93,0.7-4.94-2.18
			c-1.59,1.25-3.42,2.54-5.58,2.1c-3.73-0.41-4.81-5.85-2.19-8.19c2.48-1.4,5.36-1.86,8.01-2.85c-0.78-2.87-3.75-2.04-4.9,0.01
			C97.9,17.57,96.42,17.17,94.94,16.76z M99.69,23.31c-0.09,1.24,0.48,1.8,1.7,1.69c2.07,0.01,2.33-2.52,2.91-3.96
			C102.76,21.72,100.47,21.5,99.69,23.31z"/>
	</g>
	<ellipse cx="124" cy="20.5" rx="3.35" ry="12.02"/>
	<g>
		<path d="M132.93,12.63c4.6-2.46,10.17,1.46,10.14,6.47c0.91,4.71-2.35,10.68-7.74,9.91C127.62,28.29,126.59,15.96,132.93,12.63z
			 M134.85,16.51c-1.74,1.96-1.48,5.37-0.4,7.59c1.87,2.59,4.4-0.91,3.83-3.02C138.83,19.1,137.46,14.51,134.85,16.51z"/>
	</g>
	<path d="M146.04,12c1.45,0,2.91,0.01,4.38,0.01c-0.06,0.67-0.16,2.01-0.21,2.68c1.79-2.69,6.44-4.11,8.14-0.58
		c1.48,4.78,0.46,9.95,0.75,14.88c-1.58,0-3.16,0.01-4.74,0.01c-0.23-4.02,0.72-8.28-0.8-12.13c-1.41-0.08-2.69,0.76-2.69,2.26
		c-0.27,3.28-0.07,6.58-0.09,9.87c-1.59,0-3.17,0-4.75,0C146.03,23.33,146.03,17.67,146.04,12z"/>
	<text transform="matrix(1 0 0 1 54.6501 28.6494)" class="st0 st1">e</text>
</g>
</svg>
